<svg id="Camada_1" data-name="Camada 1" xmlns="http://www.w3.org/2000/svg" viewBox="0 0 203 457"><polygon points="80.21 425.5 122 425.5 101 457 80.21 425.5" style="fill:#154a9a"/><polygon points="203 304 136.67 403.5 65.68 403.5 0 304 203 304" style="fill:#154a9a"/><polygon points="0 35.15 0 282 51 282 51 0 50.48 0 0 35.15" style="fill:#154a9a"/><polygon points="151 140.3 151 282 202 282 202 104.79 151 140.3" style="fill:#154a9a"/><polygon points="75 87.38 75 282 126 282 126 51.87 75 87.38" style="fill:#154a9a"/><line x1="203" y1="141" x2="202" y2="140.3" style="fill:blue"/><path d="M274.5,108.88" transform="translate(-148.5 -21.5)" style="fill:blue"/><path d="M299.5,126.29" transform="translate(-148.5 -21.5)" style="fill:blue"/></svg>